<svg width="87" height="46" viewBox="0 0 87 46" fill="none" xmlns="http://www.w3.org/2000/svg">
<path d="M86.9898 7.36458C86.9898 11.4115 83.7033 14.6927 79.6564 14.6927C75.6096 14.6927 72.3231 11.4115 72.3231 7.36458C72.3231 3.3125 75.6096 0.03125 79.6564 0.03125C83.7033 0.03125 86.9898 3.3125 86.9898 7.36458ZM42.0731 45.5573C42.6356 45.5573 43.2085 45.4635 43.7658 45.2708C46.4533 44.3333 47.87 41.3958 46.9325 38.7135L34.7919 3.9375C33.8544 1.25521 30.9221 -0.161458 28.2346 0.776042C25.5523 1.71354 24.1356 4.65104 25.0731 7.33333L37.2137 42.1094C37.9533 44.2292 39.9429 45.5573 42.0731 45.5573ZM17.4377 45.5573C18.0002 45.5573 18.5679 45.4635 19.1304 45.2708C21.8179 44.3333 23.2294 41.3958 22.2919 38.7135L10.1564 3.9375C9.21894 1.25521 6.28665 -0.161458 3.59915 0.776042C0.916857 1.71354 -0.499809 4.65104 0.437691 7.33333L12.5783 42.1094C13.3179 44.2292 15.3075 45.5573 17.4377 45.5573Z" fill="#0070BC"/>
<path d="M29.9953 0.723901C29.2661 0.723901 28.5421 0.890568 27.8651 1.21869C26.688 1.7864 25.8026 2.78119 25.3703 4.01557L13.2296 38.7916C12.7973 40.0312 12.8703 41.3645 13.4432 42.5416C14.0109 43.7239 15.0057 44.6093 16.2453 45.0468C16.7661 45.2239 17.313 45.3177 17.8598 45.3177C19.9432 45.3177 21.8026 43.9947 22.4901 42.026L34.6307 7.24994C35.063 6.01557 34.9901 4.68223 34.4223 3.50515C33.8494 2.32286 32.8546 1.43744 31.6203 1.00515C31.089 0.81765 30.5421 0.723901 29.9953 0.723901ZM17.8598 45.7968C17.2557 45.7968 16.6567 45.6979 16.0838 45.4947C14.7244 45.0208 13.6307 44.0468 13.0057 42.7499C12.3807 41.4531 12.2973 39.9947 12.7765 38.6354L24.9171 3.85932C25.3911 2.49994 26.3651 1.40619 27.6567 0.781192C28.9536 0.156192 30.4171 0.0728602 31.7765 0.552025C33.1359 1.02078 34.2296 1.99994 34.8546 3.29682C35.4796 4.58848 35.563 6.05202 35.0838 7.4114L22.9484 42.1874C22.1932 44.3489 20.1463 45.7968 17.8598 45.7968ZM54.6307 0.723901C53.9015 0.723901 53.1776 0.890568 52.5057 1.21869C51.3234 1.7864 50.438 2.78119 50.0057 4.01557L37.8651 38.7916C37.4328 40.0312 37.5057 41.3645 38.0786 42.5416C38.6463 43.7239 39.6411 44.6093 40.8807 45.0468C41.4015 45.2239 41.9484 45.3177 42.4953 45.3177C44.5786 45.3177 46.4432 43.9947 47.1307 42.026L59.2713 7.24994C59.7036 6.01557 59.6255 4.68223 59.0578 3.50515C58.4848 2.32286 57.4901 1.43744 56.2557 1.00515C55.7244 0.81765 55.1776 0.723901 54.6307 0.723901ZM42.4953 45.7968C41.8911 45.7968 41.2973 45.6979 40.7192 45.4947C39.3651 45.0208 38.2713 44.0468 37.6463 42.7499C37.0161 41.4531 36.938 39.9947 37.4119 38.6354L49.5526 3.85932C50.0265 2.49994 51.0005 1.40619 52.2921 0.781192C53.589 0.156192 55.0526 0.0728602 56.4119 0.552025C57.7713 1.02078 58.8651 1.99994 59.4901 3.29682C60.1151 4.58848 60.1984 6.05202 59.7244 7.4114L47.5838 42.1874C46.8286 44.3489 44.7817 45.7968 42.4953 45.7968Z" fill="#0070BC"/>
<path d="M67.0217 45.5573C67.5842 45.5573 68.1571 45.4636 68.7196 45.2709C71.4019 44.3334 72.8186 41.3959 71.8811 38.7136L59.7404 3.93753C58.8081 1.25524 55.8706 -0.16143 53.1831 0.77607C50.5008 1.71357 49.0842 4.65107 50.0217 7.33336L62.1623 42.1094C62.9019 44.2292 64.8967 45.5573 67.0217 45.5573Z" fill="#0070BC"/>
</svg>
