<svg width="88" height="46" viewBox="0 0 88 46" fill="none" xmlns="http://www.w3.org/2000/svg">
<path d="M87.648 7.36458C87.648 11.4115 84.3667 14.6927 80.3147 14.6927C76.2678 14.6927 72.9813 11.4115 72.9813 7.36458C72.9813 3.3125 76.2678 0.03125 80.3147 0.03125C84.3667 0.03125 87.648 3.3125 87.648 7.36458ZM42.7313 45.5573C43.2938 45.5573 43.8667 45.4635 44.4292 45.2708C47.1115 44.3333 48.5282 41.3958 47.5907 38.7135L35.4501 3.9375C34.5126 1.25521 31.5803 -0.161458 28.8928 0.776042C26.2105 1.71354 24.7938 4.65104 25.7313 7.33333L37.8719 42.1094C38.6115 44.2292 40.6011 45.5573 42.7313 45.5573ZM18.0959 45.5573C18.6584 45.5573 19.2313 45.4635 19.7886 45.2708C22.4761 44.3333 23.8928 41.3958 22.9553 38.7135L10.8146 3.9375C9.87714 1.25521 6.94485 -0.161458 4.25735 0.776042C1.57506 1.71354 0.158394 4.65104 1.09589 7.33333L13.2365 42.1094C13.9761 44.2292 15.9657 45.5573 18.0959 45.5573Z" fill="white"/>
<path d="M30.6532 0.723901C29.9241 0.723901 29.2001 0.890568 28.5282 1.21869C27.3459 1.7864 26.4605 2.78119 26.0282 4.01557L13.8876 38.7916C13.4553 40.0312 13.5282 41.3645 14.1012 42.5416C14.6689 43.7239 15.6637 44.6093 16.9032 45.0468C17.4241 45.2239 17.9709 45.3177 18.5178 45.3177C20.6012 45.3177 22.4657 43.9947 23.1532 42.026L35.2939 7.24994C35.7209 6.01557 35.648 4.68223 35.0803 3.50515C34.5074 2.32286 33.5126 1.43744 32.2782 1.00515C31.747 0.81765 31.2001 0.723901 30.6532 0.723901ZM18.5178 45.7968C17.9137 45.7968 17.3199 45.6979 16.7418 45.4947C15.3824 45.0208 14.2939 44.0468 13.6637 42.7499C13.0387 41.4531 12.9605 39.9947 13.4345 38.6354L25.5751 3.85932C26.0491 2.49994 27.023 1.40619 28.3147 0.781192C29.6116 0.156192 31.0751 0.0728602 32.4345 0.552025C33.7939 1.02078 34.8876 1.99994 35.5126 3.29682C36.1376 4.58848 36.2209 6.05202 35.747 7.4114L23.6064 42.1874C22.8512 44.3489 20.8043 45.7968 18.5178 45.7968ZM55.2887 0.723901C54.5647 0.723901 53.8355 0.890568 53.1637 1.21869C51.9814 1.7864 51.0959 2.78119 50.6637 4.01557L38.523 38.7916C38.0907 40.0312 38.1637 41.3645 38.7366 42.5416C39.3043 43.7239 40.2991 44.6093 41.5387 45.0468C42.0595 45.2239 42.6064 45.3177 43.1532 45.3177C45.2366 45.3177 47.1012 43.9947 47.7887 42.026L59.9293 7.24994C60.3616 6.01557 60.2834 4.68223 59.7157 3.50515C59.1428 2.32286 58.1532 1.43744 56.9137 1.00515C56.3824 0.81765 55.8355 0.723901 55.2887 0.723901ZM43.1532 45.7968C42.5491 45.7968 41.9553 45.6979 41.3824 45.4947C40.023 45.0208 38.9293 44.0468 38.3043 42.7499C37.6793 41.4531 37.5959 39.9947 38.0699 38.6354L50.2105 3.85932C50.6845 2.49994 51.6584 1.40619 52.9553 0.781192C54.247 0.156192 55.7105 0.0728602 57.0699 0.552025C58.4293 1.02078 59.523 1.99994 60.148 3.29682C60.773 4.58848 60.8564 6.05202 60.3824 7.4114L48.2418 42.1874C47.4866 44.3489 45.4449 45.7968 43.1532 45.7968Z" fill="white"/>
<path d="M67.6798 45.5573C68.2423 45.5573 68.8153 45.4636 69.3777 45.2709C72.06 44.3334 73.4767 41.3959 72.5392 38.7136L60.3986 3.93753C59.4663 1.25524 56.5288 -0.16143 53.8465 0.77607C51.159 1.71357 49.7423 4.65107 50.6798 7.33336L62.8257 42.1094C63.5652 44.2292 65.5548 45.5573 67.6798 45.5573Z" fill="white"/>
</svg>
